# xmcd CD database file
# 
# Track frame offsets:
# 	150
# 	22985
# 	48029
# 	71592
# 	115213
# 	136253
# 	159682
# 	177088
# 
# Disc length: 3038 seconds
# 
# Submitted via: Nero 5.5.10.42
# 
# Revision: 0
# Processed by: cddbd v1.4PL0 Copyright (c) Steve Scherf et al.
#
DISCID=600bdc08
DTITLE=Rusty Wier - Live At Gruene Hall
DYEAR=1900
DGENRE=
TTITLE0=Outlaw Love
TTITLE1=He's Not The Man
TTITLE2=Running With The Wrong Crowd
TTITLE3=Still Waters Run Deep
TTITLE4=Take It Slow
TTITLE5=Piro Joe
TTITLE6=Painted Lady
TTITLE7=Don't It Make You Wanna Dance
EXTD=
EXTT0=
EXTT1=
EXTT2=
EXTT3=
EXTT4=
EXTT5=
EXTT6=
EXTT7=
PLAYORDER=
